<?xml version="1.0" standalone="no"?><!DOCTYPE svg PUBLIC "-//W3C//DTD SVG 1.1//EN" "http://www.w3.org/Graphics/SVG/1.1/DTD/svg11.dtd"><svg t="1703910330084" class="icon" viewBox="0 0 1024 1024" version="1.1" xmlns="http://www.w3.org/2000/svg" p-id="1703" xmlns:xlink="http://www.w3.org/1999/xlink" width="200" height="200"><path d="M168 160c19.882 0 36 16.118 36 36v596h652c19.882 0 36 16.118 36 36s-16.118 36-36 36H168c-19.882 0-36-16.118-36-36V196c0-19.882 16.118-36 36-36z m692.871 157.967c13.688 14.145 13.457 36.624-0.413 50.487l-0.425 0.417-241.366 233.55c-17.041 16.489-44.041 16.484-61.076 0.111l-0.514-0.5-100.065-99.302-125.64 124.81c-13.965 13.872-36.445 13.937-50.49 0.25l-0.422-0.419c-13.872-13.964-13.937-36.444-0.25-50.488l0.419-0.423 145.365-144.402c16.981-16.87 44.288-17.045 61.484-0.522l0.518 0.506 100.322 99.556 221.649-214.47c14.288-13.825 37.079-13.45 50.904 0.839z" fill="#000000" p-id="1704"></path></svg>